
<svg width="0" height="0" class="hidden">
  <symbol xmlns="http://www.w3.org/2000/svg" viewBox="0 0 3 2" id="bj" width="30" height="20">
    <path fill="#E8112D" d="M0 0h3v2H0z"></path>
    <path fill="#FCD116" d="M0 0h3v1H0z"></path>
    <path fill="#008751" d="M0 0h1.2v2H0z"></path>
  </symbol>
  <symbol xmlns="http://www.w3.org/2000/svg" viewBox="0 0 3 2" id="bl">
    <path fill="#EC1920" d="M0 0h3v2H0z"></path>
    <path fill="#fff" d="M0 0h2v2H0z"></path>
    <path fill="#051440" d="M0 0h1v2H0z"></path>
  </symbol>
  <symbol xmlns="http://www.w3.org/2000/svg" viewBox="0 0 45 39" id="be">
    <path fill="#ED2939" d="M0 0h45v39H0z"></path>
    <path fill="#FAE042" d="M0 0h30v39H0z"></path>
    <path d="M0 0h15v39H0z"></path>
  </symbol>
  <symbol xmlns="http://www.w3.org/2000/svg" xmlns:xlink="http://www.w3.org/1999/xlink" viewBox="0 0 900 600" id="bf">
    <path fill="#009e49" d="M0 0h900v600H0z"></path>
    <path fill="#ef2b2d" d="M0 0h900v300H0z"></path>
    <g transform="translate(450 300)" fill="#fcd116">
      <g id="b">
        <path id="a" d="M0-100V0h50" transform="rotate(18 0 -100)"></path>
        <use xlink:href="#a" transform="scale(-1 1)"></use>
      </g>
      <use xlink:href="#b" transform="rotate(72)"></use>
      <use xlink:href="#b" transform="rotate(144)"></use>
      <use xlink:href="#b" transform="rotate(216)"></use>
      <use xlink:href="#b" transform="rotate(288)"></use>
    </g>
  </symbol>
  <symbol xmlns="http://www.w3.org/2000/svg" viewBox="0 0 5 3" id="bg">
    <path fill="#fff" d="M0 0h5v3H0z"></path>
    <path fill="#00966E" d="M0 1h5v2H0z"></path>
    <path fill="#D62612" d="M0 2h5v1H0z"></path>
  </symbol>
  <symbol xmlns="http://www.w3.org/2000/svg" viewBox="0 0 1500 900" id="bh">
    <path d="M0 0h1500v900H0" fill="#fff"></path>
    <path d="M1500 0H375l225 90-225 90 225 90-225 90 225 90-225 90 225 90-225 90 225 90-225 90h1125" fill="#ce1126"></path>
  </symbol>
  <symbol xmlns="http://www.w3.org/2000/svg" xmlns:xlink="http://www.w3.org/1999/xlink" viewBox="0 0 500 300" id="bi">
    <defs>
      <g id="b" fill="#1eb53a">
        <g id="s">
          <g id="t">
            <g id="c">
              <path id="h" d="M0,-20V0H20" transform="rotate(30,0,-20)"></path>
              <use xlink:href="#h" transform="scale(-1,1)"></use>
            </g>
            <use xlink:href="#c" transform="rotate(120)"></use>
            <use xlink:href="#c" transform="rotate(240)"></use>
          </g>
          <use xlink:href="#t" transform="rotate(180)"></use>
        </g>
        <use xlink:href="#s" fill="#ce1126" transform="scale(0.82)"></use>
      </g>
      <use id="star" xlink:href="#b" x="250" y="106"></use>
    </defs>
    <path d="M0,0H500L0,300H500z" fill="#ce1126"></path>
    <path d="M0,0V300L500,0V300z" fill="#1eb53a"></path>
    <path d="M0,0 500,300M500,0 0,300" stroke="#fff" stroke-width="40"></path>
    <circle cx="250" cy="150" r="85" fill="#fff"></circle>
    <use xlink:href="#star"></use>
    <use xlink:href="#star" transform="rotate(120,250,150)"></use>
    <use xlink:href="#star" transform="rotate(240,250,150)"></use>
  </symbol>
</svg>
