<svg width="38" height="38" fill="none" xmlns="http://www.w3.org/2000/svg"><path d="M15.82 19a1.9 1.9 0 001.8 1.9c.32.02.64-.05.93-.19l3.82 3.8a.64.64 0 001.08-.44.63.63 0 00-.18-.45l-3.82-3.8a1.9 1.9 0 000-1.64l1.9-1.9a.63.63 0 00-.44-1.08.64.64 0 00-.45.19l-1.91 1.9A1.92 1.92 0 0015.82 19zm1.27 0a.63.63 0 01.76-.62.64.64 0 01.5.5.63.63 0 01-.62.75.64.64 0 01-.64-.63z" fill="url(#paint0_linear_803)"/><path d="M33 20.43v-2.86a1.1 1.1 0 00-1.11-1.1h-1.7a12.61 12.61 0 00-2.94-5.86v-.03L25.6 5.15a1.89 1.89 0 00-1.83-1.35h-.35l-.53-2.77A1.27 1.27 0 0021.65 0H13.8a1.28 1.28 0 00-1.25 1.03l-.52 2.77h-.36a1.9 1.9 0 00-1.82 1.35L8.2 10.58v.03a12.6 12.6 0 000 16.78v.03l1.64 5.43a1.89 1.89 0 001.82 1.35h.36l.52 2.77A1.27 1.27 0 0013.8 38h7.85a1.28 1.28 0 001.25-1.03l.53-2.77h.35a1.9 1.9 0 001.83-1.35l1.64-5.43v-.03a12.61 12.61 0 002.95-5.86h1.69a1.12 1.12 0 001.11-1.1zM23.78 5.07a.63.63 0 01.61.45l1.02 3.39c-.37-.28-.76-.55-1.17-.79l-.58-3.05h.12zm-9.98-3.8h7.85l1.16 6.12a12.77 12.77 0 00-10.16 0l1.15-6.12zm-2.74 4.25a.63.63 0 01.61-.45h.12l-.58 3.05c-.4.24-.8.5-1.17.79l1.02-3.4zm6.67 2.08c6.31 0 11.45 5.11 11.45 11.4s-5.14 11.4-11.45 11.4A11.44 11.44 0 016.27 19c0-6.29 5.14-11.4 11.46-11.4zm-6.06 25.33a.63.63 0 01-.6-.45l-1.03-3.39c.38.28.77.55 1.17.79l.58 3.05h-.12zm9.98 3.8H13.8l-1.15-6.12a12.77 12.77 0 0010.16 0l-1.16 6.12zm2.74-4.25a.63.63 0 01-.6.45h-.13l.58-3.05c.4-.24.8-.5 1.17-.79l-1.02 3.4zm7.34-12.21h-1.34a12.9 12.9 0 000-2.54h1.34v2.54z" fill="url(#paint1_linear_803)"/><path d="M17.73 10.13V8.87c-5.35 0-9.81 4.15-10.16 9.46l1.27.08a8.9 8.9 0 018.89-8.28z" fill="url(#paint2_linear_803)"/><path d="M8.9 20.18l-1.26.17c.1.79.3 1.56.59 2.3l1.18-.46a8.78 8.78 0 01-.51-2z" fill="url(#paint3_linear_803)"/><path d="M11.09 24.91a8.89 8.89 0 01-1.25-1.77l-1.12.59c.39.73.86 1.41 1.42 2.03l.95-.85z" fill="url(#paint4_linear_803)"/><path d="M10.94 26.55c.62.55 1.3 1.03 2.03 1.41l.6-1.12a8.93 8.93 0 01-1.78-1.23l-.85.94z" fill="url(#paint5_linear_803)"/><path d="M14.06 28.46c.75.28 1.52.48 2.31.58l.17-1.25a8.9 8.9 0 01-2.02-.51l-.46 1.18z" fill="url(#paint6_linear_803)"/><path d="M17.73 27.87v1.26a10.2 10.2 0 0010.09-8.78l-1.26-.17a8.92 8.92 0 01-8.83 7.69z" fill="url(#paint7_linear_803)"/><path d="M26.64 19h1.27c0-.68-.07-1.36-.2-2.03l-1.25.26c.12.58.18 1.17.18 1.77z" fill="url(#paint8_linear_803)"/><path d="M27.23 15.35a10.1 10.1 0 00-1.36-2.43l-1.02.76c.5.65.9 1.37 1.2 2.13l1.18-.46z" fill="url(#paint9_linear_803)"/><path d="M24.51 11.45a10.2 10.2 0 00-2.03-1.41l-.6 1.12c.65.33 1.24.75 1.79 1.23l.84-.94z" fill="url(#paint10_linear_803)"/><path d="M21.12 9.44a10.2 10.2 0 00-2.04-.48l-.16 1.25c.6.08 1.2.22 1.78.43l.42-1.2z" fill="url(#paint11_linear_803)"/><defs><linearGradient id="paint0_linear_803:10" x1="17.41" y1="14.92" x2="19.1" y2="26.47" gradientUnits="userSpaceOnUse"><stop stop-color="#CA8010"/><stop offset=".48" stop-color="#FDE58E"/><stop offset="1" stop-color="#AD7411"/></linearGradient><linearGradient id="paint1_linear_803:10" x1="10.82" y1="-1.12" x2="18.2" y2="44.88" gradientUnits="userSpaceOnUse"><stop stop-color="#CA8010"/><stop offset=".48" stop-color="#FDE58E"/><stop offset="1" stop-color="#AD7411"/></linearGradient><linearGradient id="paint2_linear_803:10" x1="9.68" y1="8.59" x2="10.98" y2="20.29" gradientUnits="userSpaceOnUse"><stop stop-color="#CA8010"/><stop offset=".48" stop-color="#FDE58E"/><stop offset="1" stop-color="#AD7411"/></linearGradient><linearGradient id="paint3_linear_803:10" x1="8.01" y1="20.11" x2="8.49" y2="23.09" gradientUnits="userSpaceOnUse"><stop stop-color="#CA8010"/><stop offset=".48" stop-color="#FDE58E"/><stop offset="1" stop-color="#AD7411"/></linearGradient><linearGradient id="paint4_linear_803:10" x1="9.21" y1="23.06" x2="9.63" y2="26.26" gradientUnits="userSpaceOnUse"><stop stop-color="#CA8010"/><stop offset=".48" stop-color="#FDE58E"/><stop offset="1" stop-color="#AD7411"/></linearGradient><linearGradient id="paint5_linear_803:10" x1="11.49" y1="25.54" x2="11.79" y2="28.43" gradientUnits="userSpaceOnUse"><stop stop-color="#CA8010"/><stop offset=".48" stop-color="#FDE58E"/><stop offset="1" stop-color="#AD7411"/></linearGradient><linearGradient id="paint6_linear_803:10" x1="14.58" y1="27.22" x2="14.76" y2="29.4" gradientUnits="userSpaceOnUse"><stop stop-color="#CA8010"/><stop offset=".48" stop-color="#FDE58E"/><stop offset="1" stop-color="#AD7411"/></linearGradient><linearGradient id="paint7_linear_803:10" x1="19.83" y1="19.92" x2="20.98" y2="30.91" gradientUnits="userSpaceOnUse"><stop stop-color="#CA8010"/><stop offset=".48" stop-color="#FDE58E"/><stop offset="1" stop-color="#AD7411"/></linearGradient><linearGradient id="paint8_linear_803:10" x1="26.76" y1="16.91" x2="27.16" y2="19.36" gradientUnits="userSpaceOnUse"><stop stop-color="#CA8010"/><stop offset=".48" stop-color="#FDE58E"/><stop offset="1" stop-color="#AD7411"/></linearGradient><linearGradient id="paint9_linear_803:10" x1="25.35" y1="12.83" x2="25.85" y2="16.35" gradientUnits="userSpaceOnUse"><stop stop-color="#CA8010"/><stop offset=".48" stop-color="#FDE58E"/><stop offset="1" stop-color="#AD7411"/></linearGradient><linearGradient id="paint10_linear_803:10" x1="22.43" y1="9.97" x2="22.74" y2="12.86" gradientUnits="userSpaceOnUse"><stop stop-color="#CA8010"/><stop offset=".48" stop-color="#FDE58E"/><stop offset="1" stop-color="#AD7411"/></linearGradient><linearGradient id="paint11_linear_803:10" x1="19.37" y1="8.91" x2="19.56" y2="10.98" gradientUnits="userSpaceOnUse"><stop stop-color="#CA8010"/><stop offset=".48" stop-color="#FDE58E"/><stop offset="1" stop-color="#AD7411"/></linearGradient></defs></svg>
