<svg width="20" height="26" viewBox="0 0 20 26" fill="none" xmlns="http://www.w3.org/2000/svg">
<path fill-rule="evenodd" clip-rule="evenodd" d="M8.75082 23.7214C9.53464 23.5033 12.1335 21.1094 16.2585 13.279C17.4956 11.439 18.95 6.75175 14.8703 2.72273C12.9438 0.901703 7.79323 -1.64774 2.60299 2.72273C0.638714 4.3351 -2.11128 9.21583 2.60299 15.8398C3.86845 18.154 6.86964 22.9703 8.75082 23.7214ZM11.6154 9.18726C11.6154 10.7587 10.347 12.0326 8.78232 12.0326C7.21764 12.0326 5.94922 10.7587 5.94922 9.18726C5.94922 7.61581 7.21764 6.3419 8.78232 6.3419C10.347 6.3419 11.6154 7.61581 11.6154 9.18726Z" fill="#671611"/>
<path d="M17.7004 14.8669L17.4205 14.6787L17.4104 14.6937L17.4019 14.7097L17.7004 14.8669ZM10.1927 25.3093L10.0676 25.6226L10.1734 25.6649L10.2832 25.6343L10.1927 25.3093ZM16.3122 4.31062L16.5493 4.07053L16.5439 4.06546L16.3122 4.31062ZM4.04489 4.31062L4.25895 4.5714L4.26219 4.56868L4.04489 4.31062ZM4.04489 17.4277L4.34088 17.2659L4.33131 17.2483L4.31974 17.2321L4.04489 17.4277ZM17.4019 14.7097C15.3457 18.6129 13.6755 21.1503 12.4286 22.734C11.8049 23.5261 11.2906 24.0752 10.8904 24.4364C10.4787 24.8078 10.2183 24.952 10.1023 24.9843L10.2832 25.6343C10.559 25.5576 10.9174 25.3208 11.3424 24.9373C11.7788 24.5435 12.319 23.9639 12.9587 23.1514C14.2384 21.5261 15.9301 18.9512 17.9989 15.0241L17.4019 14.7097ZM16.0751 4.55065C19.999 8.42577 18.6032 12.9196 17.4205 14.6787L17.9804 15.0551C19.2719 13.1342 20.7848 8.25352 16.5493 4.07059L16.0751 4.55065ZM4.26219 4.56868C6.78166 2.44714 9.26941 2.01755 11.3536 2.32261C13.4526 2.62984 15.1601 3.68579 16.0805 4.55579L16.5439 4.06546C15.5378 3.11443 13.7068 1.98514 11.4513 1.65501C9.181 1.32271 6.49835 1.80364 3.82759 4.05257L4.26219 4.56868ZM4.31974 17.2321C2.00609 13.9812 1.54522 11.192 1.87392 9.04076C2.20429 6.87861 3.33685 5.32826 4.25893 4.57138L3.83085 4.04986C2.78865 4.90535 1.56407 6.60155 1.20694 8.93885C0.848148 11.2871 1.36941 14.2502 3.77003 17.6233L4.31974 17.2321ZM10.3178 24.996C9.91819 24.8365 9.41944 24.4397 8.86062 23.8536C8.30958 23.2756 7.72858 22.5443 7.16161 21.7575C6.02803 20.1842 4.96867 18.4139 4.34088 17.2659L3.74889 17.5896C4.38656 18.7557 5.46053 20.5507 6.61419 22.1519C7.19086 22.9522 7.79196 23.7105 8.37228 24.3192C8.9448 24.9197 9.52665 25.4066 10.0676 25.6226L10.3178 24.996ZM10.2242 13.9579C11.9766 13.9579 13.3947 12.5315 13.3947 10.7752H12.72C12.72 12.1617 11.6012 13.2831 10.2242 13.2831V13.9579ZM7.05376 10.7752C7.05376 12.5315 8.47185 13.9579 10.2242 13.9579V13.2831C8.84722 13.2831 7.72847 12.1617 7.72847 10.7752H7.05376ZM10.2242 7.59244C8.47185 7.59244 7.05376 9.01876 7.05376 10.7752H7.72847C7.72847 9.38865 8.84722 8.26716 10.2242 8.26716V7.59244ZM13.3947 10.7752C13.3947 9.01876 11.9766 7.59244 10.2242 7.59244V8.26716C11.6012 8.26716 12.72 9.38865 12.72 10.7752H13.3947Z" fill="#C0C0C0"/>
</svg>
